<?xml version="1.0" encoding="utf-8" ?><svg xmlns="http://www.w3.org/2000/svg" xmlns:xlink="http://www.w3.org/1999/xlink" width="1024" height="1024" viewBox="0 0 1024 1024"><path fill="#945934" transform="scale(2 2)" d="M229.493 129.107C233.185 126.019 250.924 115.371 256.242 113.435C265.982 119.985 279.335 127.113 289.714 132.767C297.685 138.184 307.505 142.526 315.762 148.274L331.066 157.273C334.625 159.369 338.252 161.206 341.473 163.786C343.651 164.722 344.997 165.684 346.884 166.59C356.263 171.737 365.455 177.242 374.818 182.42C382.196 188.003 394.318 193.373 401.975 198.791C403.074 199.19 404.989 200.188 406.006 200.84C408.057 201.597 433.213 216.028 434.751 217.36L449.962 226.287C452.166 227.577 458.336 230.93 459.814 232.477C463.267 237.15 473.834 238.733 472.252 244.922C472.179 251.36 472.544 263.978 472.016 270.547C471.82 272.988 462.369 277.31 460.26 278.755L344.26 346.183C335.773 351.091 257.181 397.916 256.242 397.881C250.791 394.101 242.908 390.264 236.952 386.688L213.089 372.13L64.7895 285.223C57.1319 280.847 48.7004 276.493 41.4297 271.4C40.5551 270.787 40.7386 268.078 40.7455 267.024C40.913 261.236 40.658 254.873 40.7455 248.94C40.8252 247.578 40.7532 245.561 40.7455 244.149C39.9533 238.157 58.9906 229.448 63.749 226.567L148.505 176.108C154.381 172.592 162.822 167.203 168.81 164.317L169.302 163.786C177.355 159.819 189.221 150.928 196.904 148.274C200.267 144.969 215.517 136.24 220.497 133.918C223.355 132.232 226.422 130.311 229.493 129.107Z"/><path fill="#945934" transform="scale(2 2)" d="M229.493 129.107C233.185 126.019 250.924 115.371 256.242 113.435C265.982 119.985 279.335 127.113 289.714 132.767C297.685 138.184 307.505 142.526 315.762 148.274L331.066 157.273C334.625 159.369 338.252 161.206 341.473 163.786C343.651 164.722 344.997 165.684 346.884 166.59C356.263 171.737 365.455 177.242 374.818 182.42C382.196 188.003 394.318 193.373 401.975 198.791C403.074 199.19 404.989 200.188 406.006 200.84C408.057 201.597 433.213 216.028 434.751 217.36L449.962 226.287C452.166 227.577 458.336 230.93 459.814 232.477L459.814 232.477C451.933 237.113 440.326 244.84 431.894 247.84C432.086 249.749 432.026 250.751 431.894 252.675C431.669 252.639 431.176 252.669 430.926 252.675C424.017 247.096 411.98 242.172 404.613 236.904C398.495 239.446 380.92 249.598 375.528 253.524L374.818 253.524C367.426 258.446 356.89 263.574 350.054 268.851C347.771 269.691 346.608 270.614 344.933 271.299C344.003 270.092 341.665 268.872 340.323 268.135C333.492 262.683 321.478 258.783 315.281 253.524L315.281 253.524C305.251 249.246 295.956 242.702 286.242 237.723C286.151 237.758 286.06 237.793 285.969 237.828L285.518 238.011C276.781 241.532 266.449 249.115 257.373 253.524C256.998 253.723 257.197 253.647 256.627 253.524L256.242 253.086C257.825 252.529 255.522 250.409 257.373 247.84C261.298 246.021 278.993 235.483 281.077 233.413C274.78 229.744 261.598 223.079 256.627 219.095L256.627 219.095C248.885 224.049 240.573 229.399 232.283 233.413C231.454 234.003 228.118 236.535 227.452 236.904L227.452 236.904C226.032 238.235 202.412 252.895 198.717 254.354L197.785 254.354C189.015 248.339 178.541 243.264 169.302 237.723C159.923 242.558 149.401 248.923 140.093 254.354L138.983 254.354C131.593 260.053 120.073 264.722 113.641 270.348L112.747 270.348C109.488 268.738 86.59 255.729 84.9925 253.524C83.6162 254.372 82.7625 255.298 81.7309 256.537L81.7309 256.537C81.3292 258.134 81.7612 267.288 81.7309 269.634C72.5572 264.836 60.2446 258.265 51.9728 252.675C45.467 249.769 44.7894 246.852 40.7455 244.149C39.9533 238.157 58.9906 229.448 63.749 226.567L148.505 176.108C154.381 172.592 162.822 167.203 168.81 164.317L169.302 163.786C177.355 159.819 189.221 150.928 196.904 148.274C200.267 144.969 215.517 136.24 220.497 133.918C223.355 132.232 226.422 130.311 229.493 129.107Z"/><path fill="#E4AF71" transform="scale(2 2)" d="M374.818 182.42C382.196 188.003 394.318 193.373 401.975 198.791C403.074 199.19 404.989 200.188 406.006 200.84C408.057 201.597 433.213 216.028 434.751 217.36L449.962 226.287C452.166 227.577 458.336 230.93 459.814 232.477L459.814 232.477C451.933 237.113 440.326 244.84 431.894 247.84C432.086 249.749 432.026 250.751 431.894 252.675C431.669 252.639 431.176 252.669 430.926 252.675C424.017 247.096 411.98 242.172 404.613 236.904C398.495 239.446 380.92 249.598 375.528 253.524L374.818 253.524C367.426 258.446 356.89 263.574 350.054 268.851C347.771 269.691 346.608 270.614 344.933 271.299C344.003 270.092 341.665 268.872 340.323 268.135C333.492 262.683 321.478 258.783 315.281 253.524L315.281 253.524C305.251 249.246 295.956 242.702 286.242 237.723C286.151 237.758 286.06 237.793 285.969 237.828L285.518 238.011C276.781 241.532 266.449 249.115 257.373 253.524C256.998 253.723 257.197 253.647 256.627 253.524L256.242 253.086C257.825 252.529 255.522 250.409 257.373 247.84C261.298 246.021 278.993 235.483 281.077 233.413C274.78 229.744 261.598 223.079 256.627 219.095C259.879 218.206 266.932 213.645 270.181 211.696L286.242 202.133C291.011 204.478 312.362 216.221 315.762 219.095C323.642 213.195 336.303 206.164 344.933 201.482C353.186 207.495 364.864 212.729 373.496 218.254C373.692 216.359 373.571 214.547 373.496 212.649C366.602 207.447 355.789 204.46 349.102 198.791C354.847 193.678 372.244 186.019 374.818 182.42Z"/><path fill="#E4AF71" transform="scale(2 2)" d="M344.933 236.904C352.413 239.805 367.721 249.207 374.818 253.524C367.426 258.446 356.89 263.574 350.054 268.851C347.771 269.691 346.608 270.614 344.933 271.299C344.003 270.092 341.665 268.872 340.323 268.135C333.492 262.683 321.478 258.783 315.281 253.524C324.756 249.299 335.549 240.792 344.933 236.904Z"/><path fill="#DC9C54" transform="scale(2 2)" d="M337.967 244.149C341.406 245.412 358.424 255.144 362.021 257.469C360.693 258.289 347.284 266.286 346.884 266.286C342.097 262.749 328.198 255.072 322.158 252.675C329.18 249.76 331.52 248.075 337.967 244.149Z"/><path fill="#945934" transform="scale(2 2)" d="M341.473 233.413C342.839 234.253 343.691 234.967 344.933 235.976C346.513 234.849 347.332 234.222 349.102 233.413C351.458 235.662 358.905 238.981 362.128 240.609L374.818 247.168C380.868 244.054 395.327 237.003 400.233 233.413C401.704 234.254 403.173 235.081 404.613 235.976L407.669 234.475C411.424 237.182 428.057 246.144 431.894 247.84C432.086 249.749 432.026 250.751 431.894 252.675C431.669 252.639 431.176 252.669 430.926 252.675C424.017 247.096 411.98 242.172 404.613 236.904C398.495 239.446 380.92 249.598 375.528 253.524L374.818 253.524C367.721 249.207 352.413 239.805 344.933 236.904C335.549 240.792 324.756 249.299 315.281 253.524L315.281 253.524C305.251 249.246 295.956 242.702 286.242 237.723C286.151 237.758 286.06 237.793 285.969 237.828L285.518 238.011C276.781 241.532 266.449 249.115 257.373 253.524C256.998 253.723 257.197 253.647 256.627 253.524L256.242 253.086C257.825 252.529 255.522 250.409 257.373 247.84C261.298 246.021 278.993 235.483 281.077 233.413C282.761 234.526 284.634 235.709 286.242 236.904C287.672 235.786 288.468 235.288 290.126 234.475C298.112 238.548 307.09 244.623 315.281 247.84C322.856 242.969 333.553 238.134 341.473 233.413Z"/><path fill="#B1764D" transform="scale(2 2)" d="M434.751 217.36L449.962 226.287C452.166 227.577 458.336 230.93 459.814 232.477L459.814 232.477C451.933 237.113 440.326 244.84 431.894 247.84C428.057 246.144 411.424 237.182 407.669 234.475C412.487 231.292 434.007 220.718 434.751 217.36Z"/><path fill="#B1764D" transform="scale(2 2)" d="M374.818 182.42C382.196 188.003 394.318 193.373 401.975 198.791L401.487 198.814C394.287 199.109 379.776 208.483 373.496 212.649C366.602 207.447 355.789 204.46 349.102 198.791C354.847 193.678 372.244 186.019 374.818 182.42Z"/><path fill="#B1764D" transform="scale(2 2)" d="M373.496 218.254C381.828 222.683 392.505 228.279 400.233 233.413C395.327 237.003 380.868 244.054 374.818 247.168L362.128 240.609C358.905 238.981 351.458 235.662 349.102 233.413C356.101 227.683 366.001 223.915 373.496 218.254Z"/><path fill="#B1764D" transform="scale(2 2)" d="M290.126 234.475C294.745 230.172 309.833 222.679 315.762 219.095C324.063 224.227 332.997 228.537 341.473 233.413C333.553 238.134 322.856 242.969 315.281 247.84C307.09 244.623 298.112 238.548 290.126 234.475Z"/><path fill="#945934" transform="scale(2 2)" d="M401.975 198.791C403.074 199.19 404.989 200.188 406.006 200.84C399.955 202.988 374.63 218.367 373.496 218.254C373.692 216.359 373.571 214.547 373.496 212.649C379.776 208.483 394.287 199.109 401.487 198.814L401.975 198.791Z"/><path fill="#DC9C54" transform="scale(2 2)" d="M397.022 208.476C399.249 208.498 419.201 220.203 422.925 222.205C418.948 225.086 411.474 228.619 406.841 231.27C399.731 228.223 387.984 221.371 381.238 217.36C383.613 215.447 393.926 210.002 397.022 208.476Z"/><path fill="#DC9C54" transform="scale(2 2)" d="M337.264 209.989C338.753 209.739 359.954 221.215 362.773 222.833C358.506 224.894 351.637 228.288 348.067 231.27C343.865 230.323 326.375 220.614 322.158 218.254C326.503 215.97 333.251 211.642 337.264 209.989Z"/><path fill="#DC9C54" transform="scale(2 2)" d="M279.238 209.989C281.021 209.759 299.098 219.452 302.711 222.205C299.534 224.936 292.443 228.569 288.38 231.27C284.003 229.685 269.783 220.971 264.698 218.254C267.95 215.748 275.375 211.885 279.238 209.989Z"/><path fill="#945934" transform="scale(2 2)" d="M229.493 129.107C233.185 126.019 250.924 115.371 256.242 113.435C265.982 119.985 279.335 127.113 289.714 132.767C297.685 138.184 307.505 142.526 315.762 148.274L331.066 157.273C334.625 159.369 338.252 161.206 341.473 163.786C343.651 164.722 344.997 165.684 346.884 166.59C343.579 167.036 321.714 180.031 316.382 184.035L316.382 184.035C314.519 182.431 288.089 166.505 285.723 167.041C285.555 167.601 286.718 168.915 286.187 168.744L285.854 168.645C282.652 167.659 261.398 181.992 256.627 184.035C249.407 178.186 235.861 172.195 227.452 166.59C222.731 168.21 202.04 180.715 197.785 184.035C189.099 179.242 175.576 172.516 167.811 166.59C167.922 165.896 168.467 164.979 168.81 164.317L169.302 163.786C177.355 159.819 189.221 150.928 196.904 148.274C200.267 144.969 215.517 136.24 220.497 133.918C223.355 132.232 226.422 130.311 229.493 129.107Z"/><path fill="#E4AF71" transform="scale(2 2)" d="M229.493 129.107C233.185 126.019 250.924 115.371 256.242 113.435C265.982 119.985 279.335 127.113 289.714 132.767C297.685 138.184 307.505 142.526 315.762 148.274L289.714 163.003C288.897 163.682 287.62 164.542 286.728 165.184C285.51 164.249 284.042 163.653 282.642 163.003C280.411 161.295 275.712 158.833 273.152 157.402L256.627 148.274L256.627 148.274L256.146 148.15C255.672 147.093 256.397 143.975 256.627 142.759C247.095 137.923 239.299 133.58 229.493 129.107Z"/><path fill="#B1764D" transform="scale(2 2)" d="M229.493 129.107C233.185 126.019 250.924 115.371 256.242 113.435C265.982 119.985 279.335 127.113 289.714 132.767L289.545 133.274C290.937 134.524 293.096 135.25 293.544 136.025L293.384 136.395C291.897 136.514 288.713 132.095 284.771 132.767C276.49 135.738 264.906 143.936 256.627 148.274L256.627 148.274L256.146 148.15C255.672 147.093 256.397 143.975 256.627 142.759C247.095 137.923 239.299 133.58 229.493 129.107Z"/><path fill="#945934" transform="scale(2 2)" d="M256.627 142.759C260.205 140.116 276.948 130.431 281.077 129.107C282.397 130.732 283.166 131.379 284.771 132.767C276.49 135.738 264.906 143.936 256.627 148.274L256.627 148.274L256.146 148.15C255.672 147.093 256.397 143.975 256.627 142.759Z"/><path fill="#DC9C54" transform="scale(2 2)" d="M276.309 139.966C278.932 139.635 299.146 150.998 302.069 152.962C298.987 155.277 293.316 157.949 289.714 159.955C286.653 160.318 267.456 149.138 263.429 146.919C267.945 144.723 271.9 142.308 276.309 139.966Z"/><path fill="#E4AF71" transform="scale(2 2)" d="M220.497 133.918C223.355 132.232 226.422 130.311 229.493 129.107C239.299 133.58 247.095 137.923 256.627 142.759C256.397 143.975 255.672 147.093 256.146 148.15L256.627 148.274C256.423 148.389 256.548 148.358 256.242 148.274C248.68 151.928 238.572 158.663 230.843 163.003L227.452 165.184C225.826 164.053 224.967 163.528 223.064 163.003C214.961 156.489 205.844 152.584 196.904 148.274C200.267 144.969 215.517 136.24 220.497 133.918Z"/><path fill="#A15F31" transform="scale(2 2)" d="M220.497 133.918C223.355 132.232 226.422 130.311 229.493 129.107C239.299 133.58 247.095 137.923 256.627 142.759C256.397 143.975 255.672 147.093 256.146 148.15L256.627 148.274C256.423 148.389 256.548 148.358 256.242 148.274C246.622 142.673 236.161 137.067 226.362 131.681C224.386 132.21 221.921 133.913 220.497 133.918Z"/><path fill="#DC9C54" transform="scale(2 2)" d="M217.193 138.671C220.202 138.663 241.16 150.421 244.579 152.962C240.271 154.492 235.821 157.074 232.283 159.955C229.834 160.361 212.728 149.575 208.908 148.489C200.057 145.973 211.991 141.844 217.193 138.671Z"/><path fill="#B1764D" transform="scale(2 2)" d="M169.302 163.786C177.355 159.819 189.221 150.928 196.904 148.274C205.844 152.584 214.961 156.489 223.064 163.003C216.096 165.847 204.161 173.614 197.785 177.726C189.119 173.102 178.605 165.254 169.302 163.786Z"/><path fill="#B1764D" transform="scale(2 2)" d="M256.242 148.274C256.548 148.358 256.423 148.389 256.627 148.274L256.627 148.274L273.152 157.402C275.712 158.833 280.411 161.295 282.642 163.003C282.171 163.728 261.153 175.819 256.627 177.726C249.701 173.504 236.682 167.583 230.843 163.003C238.572 158.663 248.68 151.928 256.242 148.274Z"/><path fill="#B1764D" transform="scale(2 2)" d="M315.762 148.274L331.066 157.273C334.625 159.369 338.252 161.206 341.473 163.786C338.697 164.532 332.9 168.199 330.164 169.741L315.762 177.726C308.868 172.984 297.324 166.919 289.714 163.003L315.762 148.274Z"/><path fill="#E4AF71" transform="scale(2 2)" d="M197.785 184.035C202.04 180.715 222.731 168.21 227.452 166.59C235.861 172.195 249.407 178.186 256.627 184.035C261.398 181.992 282.652 167.659 285.854 168.645L286.187 168.744C286.718 168.915 285.555 167.601 285.723 167.041C288.089 166.505 314.519 182.431 316.382 184.035C308.392 189.025 297.906 193.874 290.126 199.402C289.307 199.76 287.555 200.952 286.728 201.482C285.194 200.683 283.579 199.656 281.931 198.791C278.255 201.532 261.718 211.285 257.813 212.326L256.627 212.649C254.102 211.681 233.392 201.415 230.843 199.402C229.611 200.06 228.614 200.723 227.452 201.482C226.368 200.793 225.108 199.643 224.105 198.791C222.123 200.517 217.01 203.253 214.62 204.636L198.717 213.885C189.77 209.715 180.985 204.337 172.416 199.402C171.497 199.801 169.747 200.918 168.81 201.482C167.366 200.427 166.341 199.674 164.795 198.791C156.747 193.982 146.619 188.95 138.983 184.035C140.915 182.116 163.473 168.425 167.811 166.59C175.576 172.516 189.099 179.242 197.785 184.035Z"/><path fill="#B1764D" transform="scale(2 2)" d="M197.785 184.035C199.88 185.62 222.234 198.271 224.105 198.791C222.123 200.517 217.01 203.253 214.62 204.636L198.717 213.885C189.77 209.715 180.985 204.337 172.416 199.402C179.865 193.969 190.46 189.187 197.785 184.035Z"/><path fill="#B1764D" transform="scale(2 2)" d="M230.843 199.402C235.095 195.763 251.074 187.049 256.627 184.035C264.699 188.996 273.684 193.965 281.931 198.791C278.255 201.532 261.718 211.285 257.813 212.326L256.627 212.649C254.102 211.681 233.392 201.415 230.843 199.402Z"/><path fill="#DC9C54" transform="scale(2 2)" d="M159.422 174.448C163.812 173.936 182.56 185.277 187.256 187.495C184.772 189.432 176.742 193.779 173.625 195.553C173.093 195.781 172.123 196.209 171.573 195.853C163.405 190.573 154.064 186.999 146.101 181.495C150.355 178.941 154.551 175.462 159.422 174.448Z"/><path fill="#DC9C54" transform="scale(2 2)" d="M218.2 174.448C220.808 174.368 238.669 185.412 244.579 187.495C240.549 190.09 235.082 193.051 230.843 195.553C229.144 195.901 208.72 184.213 204.746 182.42C207.442 180.329 214.957 176.227 218.2 174.448Z"/><path fill="#DC9C54" transform="scale(2 2)" d="M276.309 175.494C278.829 175.012 299.003 187.306 302.711 189.031C297.709 191.552 294.238 194.179 289.714 196.544C285.282 195.917 269.812 185.371 263.429 183.389C269.112 180.609 271.282 178.251 276.309 175.494Z"/><path fill="#945934" transform="scale(2 2)" d="M346.884 166.59C356.263 171.737 365.455 177.242 374.818 182.42C372.244 186.019 354.847 193.678 349.102 198.791C355.789 204.46 366.602 207.447 373.496 212.649C373.571 214.547 373.692 216.359 373.496 218.254C364.864 212.729 353.186 207.495 344.933 201.482C336.303 206.164 323.642 213.195 315.762 219.095C312.362 216.221 291.011 204.478 286.242 202.133L270.181 211.696C266.932 213.645 259.879 218.206 256.627 219.095L256.627 219.095C248.885 224.049 240.573 229.399 232.283 233.413C231.454 234.003 228.118 236.535 227.452 236.904C226.392 235.889 225.352 235.217 224.105 234.475C216.425 228.902 204.742 225.026 197.785 219.747L197.785 219.747C189.779 214.462 176.092 206.545 167.811 202.844C158.798 208.638 148.635 213.297 140.093 219.747L138.983 219.747C136.306 217.549 133.988 216.416 130.966 214.713L118.753 207.739C115.923 206.113 112.278 204.153 109.791 202.133C110.595 200.739 112.209 200.118 113.641 199.402C120.302 202.721 133.289 209.549 138.983 213.885C141.923 212.505 163.474 200.483 164.795 198.791C166.341 199.674 167.366 200.427 168.81 201.482C169.747 200.918 171.497 199.801 172.416 199.402C180.985 204.337 189.77 209.715 198.717 213.885L214.62 204.636C217.01 203.253 222.123 200.517 224.105 198.791C225.108 199.643 226.368 200.793 227.452 201.482C228.614 200.723 229.611 200.06 230.843 199.402C233.392 201.415 254.102 211.681 256.627 212.649L257.813 212.326C261.718 211.285 278.255 201.532 281.931 198.791C283.579 199.656 285.194 200.683 286.728 201.482C287.555 200.952 289.307 199.76 290.126 199.402C297.906 193.874 308.392 189.025 316.382 184.035L316.382 184.035C321.714 180.031 343.579 167.036 346.884 166.59Z"/><path fill="#E4AF71" transform="scale(2 2)" d="M346.884 166.59C356.263 171.737 365.455 177.242 374.818 182.42C372.244 186.019 354.847 193.678 349.102 198.791C347.943 199.367 347.095 200.067 346.062 200.84C344.583 200.157 342.868 198.979 341.473 198.08C337.557 196.226 319.469 186.523 316.382 184.035C321.714 180.031 343.579 167.036 346.884 166.59Z"/><path fill="#DC9C54" transform="scale(2 2)" d="M337.967 174.448C343.614 175.233 356.306 185.24 362.773 187.495C359.343 189.902 352.038 194.204 348.067 195.553C346.346 195.988 341.1 192.394 339.267 191.32L324.037 182.42C328.385 180.116 333.929 176.396 337.967 174.448Z"/><path fill="#E4AF71" transform="scale(2 2)" d="M227.452 202.133L256.627 219.095C248.885 224.049 240.573 229.399 232.283 233.413C231.454 234.003 228.118 236.535 227.452 236.904C226.392 235.889 225.352 235.217 224.105 234.475C216.425 228.902 204.742 225.026 197.785 219.747C206.316 216.109 219.412 207.142 227.452 202.133Z"/><path fill="#DC9C54" transform="scale(2 2)" d="M219.542 209.989C221.388 210.177 242.898 222.067 244.579 223.632C242.181 225.18 233.26 230.19 230.843 231.27C229.178 231.356 209.13 220.243 205.727 218.254C209.421 215.58 215.46 212.055 219.542 209.989Z"/><path fill="#B1764D" transform="scale(2 2)" d="M316.382 184.035L316.382 184.035C319.469 186.523 337.557 196.226 341.473 198.08C332.84 202.85 323.663 207.172 315.281 212.649L297.052 203.149C295.422 202.289 291.318 200.438 290.126 199.402C297.906 193.874 308.392 189.025 316.382 184.035Z"/><path fill="#B1764D" transform="scale(2 2)" d="M40.7455 244.149C39.9533 238.157 58.9906 229.448 63.749 226.567L148.505 176.108C154.381 172.592 162.822 167.203 168.81 164.317C168.467 164.979 167.922 165.896 167.811 166.59C163.473 168.425 140.915 182.116 138.983 184.035C146.619 188.95 156.747 193.982 164.795 198.791C163.474 200.483 141.923 212.505 138.983 213.885C133.289 209.549 120.302 202.721 113.641 199.402C112.209 200.118 110.595 200.739 109.791 202.133C112.278 204.153 115.923 206.113 118.753 207.739L130.966 214.713C133.988 216.416 136.306 217.549 138.983 219.747C133 224.067 120.309 231.305 113.641 234.475C112.738 235.007 111.394 236.198 110.544 236.904L106.728 234.475C102.607 238.056 86.7576 246.339 80.9093 250.063C73.6951 246.488 60.089 238.928 53.4887 234.475C53.0928 234.804 52.0089 238.606 51.9728 238.908C51.9919 243.133 52.1638 248.535 51.9728 252.675C45.467 249.769 44.7894 246.852 40.7455 244.149Z"/><path fill="#E4AF71" transform="scale(2 2)" d="M80.9093 219.747C83.0288 218.102 106.52 203.468 109.791 202.133C112.278 204.153 115.923 206.113 118.753 207.739L130.966 214.713C133.988 216.416 136.306 217.549 138.983 219.747C133 224.067 120.309 231.305 113.641 234.475C112.738 235.007 111.394 236.198 110.544 236.904L106.728 234.475C105.21 233.396 99.3624 230.304 97.387 229.196L80.9093 219.747Z"/><path fill="#DC9C54" transform="scale(2 2)" d="M102.666 209.989C105.139 210.374 124.083 220.922 128.129 222.833C123.982 225.217 116.674 230.05 112.747 231.839C105.181 226.955 94.9043 222.695 87.1203 218.254C91.0521 216.665 98.2921 212.183 102.666 209.989Z"/><path fill="#E4AF71" transform="scale(2 2)" d="M140.093 219.747C148.635 213.297 158.798 208.638 167.811 202.844C176.092 206.545 189.779 214.462 197.785 219.747C191.873 224.479 179.236 229.636 173.625 234.475C171.936 235.258 170.891 235.915 169.302 236.904C167.816 236.083 166.292 235.281 164.795 234.475C161.561 231.964 156.43 229.184 152.827 227.127L140.093 219.747Z"/><path fill="#DC9C54" transform="scale(2 2)" d="M161.474 209.989C162.471 209.932 183.683 221.303 187.256 222.833C183.01 225.795 176.944 229.581 172.416 232.477C164.944 230.106 155.542 221.962 146.101 219.095C150.567 215.618 156.423 212.764 161.474 209.989Z"/><path fill="#E4AF71" transform="scale(2 2)" d="M110.544 238.908C113.439 239.8 135.539 251.589 138.983 254.354C131.593 260.053 120.073 264.722 113.641 270.348L112.747 270.348C109.488 268.738 86.59 255.729 84.9925 253.524C89.265 250.844 106.164 240.213 110.544 238.908Z"/><path fill="#DC9C54" transform="scale(2 2)" d="M104.221 244.922C105.806 244.78 124.81 255.805 128.129 257.469C124.606 259.499 117.401 263.782 114.358 266.286C111.877 266.478 93.2927 254.805 90.4016 252.675C95.3413 250.187 99.6473 247.1 104.221 244.922Z"/><path fill="#B1764D" transform="scale(2 2)" d="M138.983 219.747L140.093 219.747L152.827 227.127C156.43 229.184 161.561 231.964 164.795 234.475C157.83 240.515 146.453 243.999 138.983 248.94C133.884 246.392 117.481 237.662 113.641 234.475C120.309 231.305 133 224.067 138.983 219.747Z"/><path fill="#B1764D" transform="scale(2 2)" d="M197.785 219.747L197.785 219.747C204.742 225.026 216.425 228.902 224.105 234.475C218.176 236.737 203.281 245.532 198.717 248.94C193.598 246.226 176.534 237.034 173.625 234.475C179.236 229.636 191.873 224.479 197.785 219.747Z"/><path fill="#E4AF71" transform="scale(2 2)" d="M51.9728 238.908C61.3645 243.309 72.5873 251.233 81.7309 256.537L81.7309 256.537C81.3292 258.134 81.7612 267.288 81.7309 269.634C72.5572 264.836 60.2446 258.265 51.9728 252.675C52.1638 248.535 51.9919 243.133 51.9728 238.908Z"/><path fill="#A15F31" transform="scale(2 2)" d="M459.814 232.477L459.814 232.477C463.267 237.15 473.834 238.733 472.252 244.922C472.179 251.36 472.544 263.978 472.016 270.547C471.82 272.988 462.369 277.31 460.26 278.755L344.26 346.183C335.773 351.091 257.181 397.916 256.242 397.881L256.242 393.402C256.079 391.459 255.805 387.116 256.044 385.157L256.242 383.506C256.412 382.004 256.243 377.335 256.242 375.576L256.242 370.341L256.242 357.836C264.31 354.375 278.397 345.751 286.242 341.088L285.562 341.088C285.281 340.125 285.027 339.06 284.771 338.081L284.771 338.081L286.242 338.081C290.627 334.696 307.101 325.295 312.213 323.411C315.376 324.434 314.458 320.34 314.354 318.35C312.039 316.865 308.693 315.16 306.203 313.764L289.714 304.558C291.421 303.119 296.312 300.345 298.373 299.115L315.281 289.104C315.797 289.303 315.692 289.196 316.382 289.104C323.996 282.83 336.271 276.694 344.933 271.299L344.933 271.299C346.608 270.614 347.771 269.691 350.054 268.851C356.89 263.574 367.426 258.446 374.818 253.524L375.528 253.524C380.92 249.598 398.495 239.446 404.613 236.904C411.98 242.172 424.017 247.096 430.926 252.675C431.176 252.669 431.669 252.639 431.894 252.675C432.026 250.751 432.086 249.749 431.894 247.84C440.326 244.84 451.933 237.113 459.814 232.477Z"/><path fill="#693A1E" transform="scale(2 2)" d="M256.242 370.341L416.115 277.55C427.243 271.063 438.291 264.535 449.581 258.314C455.498 255.054 466.336 246.852 472.252 244.922C472.179 251.36 472.544 263.978 472.016 270.547C471.82 272.988 462.369 277.31 460.26 278.755L344.26 346.183C335.773 351.091 257.181 397.916 256.242 397.881L256.242 393.402C256.079 391.459 255.805 387.116 256.044 385.157L256.242 383.506C256.412 382.004 256.243 377.335 256.242 375.576L256.242 370.341Z"/><path fill="#E4AF71" transform="scale(2 2)" d="M344.933 271.299C346.608 270.614 347.771 269.691 350.054 268.851C356.152 273.405 367.53 276.957 374.818 282.148C374.55 284.162 375.179 286.18 374.818 287.959L374.078 288.341L373.496 287.959C371.74 287.753 347.394 300.909 343.882 304.558C342.926 303.858 342.563 303.706 341.473 303.188C333.752 297.737 324.58 293.818 316.382 289.104C323.996 282.83 336.271 276.694 344.933 271.299L344.933 271.299Z"/><path fill="#A15F31" transform="scale(2 2)" d="M344.933 271.299C346.608 270.614 347.771 269.691 350.054 268.851C356.152 273.405 367.53 276.957 374.818 282.148C374.55 284.162 375.179 286.18 374.818 287.959L374.078 288.341L373.496 287.959C371.482 285.358 350.946 274.307 344.933 271.299L344.933 271.299Z"/><path fill="#DC9C54" transform="scale(2 2)" d="M337.967 279.483C340.201 278.867 358.902 289.855 362.021 291.285C357.21 294.015 350.28 298.823 346.062 300.635L345.137 300.862C342.454 300.07 325.103 289.747 322.158 287.959C325.907 285.381 334.057 280.947 337.967 279.483Z"/><path fill="#E4AF71" transform="scale(2 2)" d="M404.613 236.904C411.98 242.172 424.017 247.096 430.926 252.675C426.915 253.857 423.829 256.082 420.211 258.181C415.838 260.944 409.918 263.668 406.006 266.286C403.777 267.43 403.941 267.983 403.819 270.348C402.632 269.888 403.858 268.462 401.975 267.024C401.232 267.065 378.778 254.892 375.528 253.524C380.92 249.598 398.495 239.446 404.613 236.904Z"/><path fill="#DC9C54" transform="scale(2 2)" d="M397.022 244.922C401.605 246.864 417.596 254.928 420.211 258.181C415.838 260.944 409.918 263.668 406.006 266.286C404.433 264.526 384.724 254.476 381.238 252.675C385.636 250.099 392.231 246.312 397.022 244.922Z"/><path fill="#B1764D" transform="scale(2 2)" d="M315.281 289.104C315.797 289.303 315.692 289.196 316.382 289.104C324.58 293.818 333.752 297.737 341.473 303.188C332.558 308.303 322.907 312.669 314.354 318.35C312.039 316.865 308.693 315.16 306.203 313.764L289.714 304.558C291.421 303.119 296.312 300.345 298.373 299.115L315.281 289.104Z"/><path fill="#B1764D" transform="scale(2 2)" d="M374.818 253.524L375.528 253.524C378.778 254.892 401.232 267.065 401.975 267.024C393.104 270.727 383.489 277.571 374.818 282.148C367.53 276.957 356.152 273.405 350.054 268.851C356.89 263.574 367.426 258.446 374.818 253.524Z"/><path fill="#693A1E" transform="scale(2 2)" d="M341.473 303.188C342.563 303.706 342.926 303.858 343.882 304.558C344.44 306.218 345.081 304.937 344.722 305.919C339.991 308.789 317.383 320.506 314.654 323.47L314.726 323.625C316.753 322.878 318.087 321.883 320.019 321.096C310.332 329.116 296.16 333.91 286.242 341.088L285.562 341.088C285.281 340.125 285.027 339.06 284.771 338.081L284.771 338.081L286.242 338.081C290.627 334.696 307.101 325.295 312.213 323.411C315.376 324.434 314.458 320.34 314.354 318.35C322.907 312.669 332.558 308.303 341.473 303.188Z"/><path fill="#DC9C54" transform="scale(2 2)" d="M284.771 338.081L286.242 338.081C286.721 339.533 286.773 339.991 285.562 341.088C285.281 340.125 285.027 339.06 284.771 338.081L284.771 338.081Z"/><path fill="#693A1E" transform="scale(2 2)" d="M401.975 267.024C403.858 268.462 402.632 269.888 403.819 270.348C404.785 269.972 405.904 269.342 406.841 268.851L406.841 269.634C398.023 276.125 384.366 283.934 374.818 289.104C374.625 288.44 374.675 288.706 374.818 287.959C375.179 286.18 374.55 284.162 374.818 282.148C383.489 277.571 393.104 270.727 401.975 267.024Z"/><path fill="#693A1E" transform="scale(2 2)" d="M459.814 232.477C460.3 233.979 461.065 239.531 458.737 239.853C458.957 239.562 459.102 239.379 459.342 239.097L459.065 238.919C452.912 242.497 436.788 252.478 431.894 254.354L431.894 252.675C432.026 250.751 432.086 249.749 431.894 247.84C440.326 244.84 451.933 237.113 459.814 232.477Z"/><defs><linearGradient id="gradient_0" gradientUnits="userSpaceOnUse" x1="344.98874" y1="307.50729" x2="342.97559" y2="303.74042"><stop offset="0" stop-color="#582812"/><stop offset="1" stop-color="#A06536"/></linearGradient></defs><path fill="url(#gradient_0)" transform="scale(2 2)" d="M373.496 287.959L374.078 288.341L374.818 287.959C374.675 288.706 374.625 288.44 374.818 289.104C374.27 289.811 374.169 289.902 373.496 290.504C369.965 291.956 365.471 294.763 362.021 296.723C354.129 301.752 344.966 306.559 336.812 311.337L324.96 318.215C324.197 318.659 320.65 320.829 320.019 321.096C318.087 321.883 316.753 322.878 314.726 323.625L314.654 323.47C317.383 320.506 339.991 308.789 344.722 305.919C345.081 304.937 344.44 306.218 343.882 304.558C347.394 300.909 371.74 287.753 373.496 287.959Z"/><path fill="#693A1E" transform="scale(2 2)" d="M362.021 296.723L362.073 296.356C362.799 295.165 371.479 289.715 373.496 290.504C369.965 291.956 365.471 294.763 362.021 296.723Z"/><path fill="#A15F31" transform="scale(2 2)" d="M430.926 252.675C431.176 252.669 431.669 252.639 431.894 252.675L431.894 254.354C425.528 258.261 413.583 266.155 406.841 268.851C405.904 269.342 404.785 269.972 403.819 270.348C403.941 267.983 403.777 267.43 406.006 266.286C409.918 263.668 415.838 260.944 420.211 258.181C423.829 256.082 426.915 253.857 430.926 252.675Z"/><path fill="#4B210E" transform="scale(2 2)" d="M431.894 254.354C436.788 252.478 452.912 242.497 459.065 238.919L459.342 239.097C459.102 239.379 458.957 239.562 458.737 239.853C441.682 249.816 424.073 260.063 406.841 269.634L406.841 268.851C413.583 266.155 425.528 258.261 431.894 254.354Z"/><path fill="#A15F31" transform="scale(2 2)" d="M40.7455 244.149C44.7894 246.852 45.467 249.769 51.9728 252.675C60.2446 258.265 72.5572 264.836 81.7309 269.634C81.7612 267.288 81.3292 258.134 81.7309 256.537L81.7309 256.537C82.7625 255.298 83.6162 254.372 84.9925 253.524C86.59 255.729 109.488 268.738 112.747 270.348C112.392 271.553 112.643 273.099 112.747 274.401L112.747 274.401C112.599 276.913 113.201 286.565 112.747 287.959C118.211 291.498 133.35 300.768 138.66 303.188C139.489 299.377 138.409 292.998 138.983 290.504L138.983 290.504C140.317 289.782 140.765 289.601 142.181 289.104C149.595 292.509 166.51 300.611 171.074 305.351C169.607 306.304 169.405 306.401 169.302 308.164L169.302 308.164C169.287 310.418 169.516 319.514 169.302 321.096C178.813 327.109 189.047 332.351 198.717 338.081C198.736 336.142 198.235 325.929 198.717 325.239L198.717 325.239C199.642 324.764 200.862 323.969 201.778 323.411C202.994 324.353 204.54 324.337 206.565 325.686C213.852 330.541 224.254 334.568 230.843 339.445L230.843 339.445C229.22 340.423 229.529 341.272 229.493 343.057L229.493 343.057C235.392 345.988 248.925 355.205 254.408 356.677L256.242 357.836L256.242 370.341L256.242 375.576C256.243 377.335 256.412 382.004 256.242 383.506L256.044 385.157C255.805 387.116 256.079 391.459 256.242 393.402L256.242 397.881C250.791 394.101 242.908 390.264 236.952 386.688L213.089 372.13L64.7895 285.223C57.1319 280.847 48.7004 276.493 41.4297 271.4C40.5551 270.787 40.7386 268.078 40.7455 267.024C40.913 261.236 40.658 254.873 40.7455 248.94C40.8252 247.578 40.7532 245.561 40.7455 244.149Z"/><path fill="#B1764D" transform="scale(2 2)" d="M40.7455 244.149C44.7894 246.852 45.467 249.769 51.9728 252.675C60.2446 258.265 72.5572 264.836 81.7309 269.634C81.7612 267.288 81.3292 258.134 81.7309 256.537L81.7309 256.537C82.7625 255.298 83.6162 254.372 84.9925 253.524C86.59 255.729 109.488 268.738 112.747 270.348C112.392 271.553 112.643 273.099 112.747 274.401L112.747 274.401C112.599 276.913 113.201 286.565 112.747 287.959C118.211 291.498 133.35 300.768 138.66 303.188C139.489 299.377 138.409 292.998 138.983 290.504L138.983 290.504C140.317 289.782 140.765 289.601 142.181 289.104C149.595 292.509 166.51 300.611 171.074 305.351C169.607 306.304 169.405 306.401 169.302 308.164L169.302 308.164C169.287 310.418 169.516 319.514 169.302 321.096C178.813 327.109 189.047 332.351 198.717 338.081C198.736 336.142 198.235 325.929 198.717 325.239L198.717 325.239C199.642 324.764 200.862 323.969 201.778 323.411C202.994 324.353 204.54 324.337 206.565 325.686C213.852 330.541 224.254 334.568 230.843 339.445L230.843 339.445C229.22 340.423 229.529 341.272 229.493 343.057L229.493 343.057C235.392 345.988 248.925 355.205 254.408 356.677L256.242 357.836L256.242 370.341L256.242 375.576L256.242 377.546C243.337 369.874 230.086 362.365 217.01 354.963C212.475 352.332 207.922 348.353 203.278 345.984C184.905 336.712 167.777 326.916 150.741 315.381C147.608 313.26 145.852 311.002 142.187 309.113C129.881 301.029 109.44 293.234 98.8185 285.109C92.1159 279.981 85.3262 277.52 78.5411 272.872C72.6965 268.869 46.2046 250.683 40.7455 248.94C40.8252 247.578 40.7532 245.561 40.7455 244.149Z"/><path fill="#E7C9A5" transform="scale(2 2)" d="M84.9925 253.524C86.59 255.729 109.488 268.738 112.747 270.348C112.392 271.553 112.643 273.099 112.747 274.401L112.747 274.401C112.599 276.913 113.201 286.565 112.747 287.959C102.808 281.637 91.9922 275.413 81.7309 269.634C81.7612 267.288 81.3292 258.134 81.7309 256.537L81.7309 256.537C82.7625 255.298 83.6162 254.372 84.9925 253.524Z"/><path fill="#DC9C54" transform="scale(2 2)" d="M84.9925 253.524C86.59 255.729 109.488 268.738 112.747 270.348C112.392 271.553 112.643 273.099 112.747 274.401C103.096 269.034 91.3502 261.282 81.7309 256.537L81.7309 256.537C82.7625 255.298 83.6162 254.372 84.9925 253.524Z"/><path fill="#E7C9A5" transform="scale(2 2)" d="M138.983 290.504C140.317 289.782 140.765 289.601 142.181 289.104C149.595 292.509 166.51 300.611 171.074 305.351C169.607 306.304 169.405 306.401 169.302 308.164L169.302 308.164C169.287 310.418 169.516 319.514 169.302 321.096C159.604 315.287 147.815 309.498 138.66 303.188C139.489 299.377 138.409 292.998 138.983 290.504L138.983 290.504Z"/><path fill="#DC9C54" transform="scale(2 2)" d="M138.983 290.504C140.317 289.782 140.765 289.601 142.181 289.104C149.595 292.509 166.51 300.611 171.074 305.351C169.607 306.304 169.405 306.401 169.302 308.164C159.192 302.337 148.999 296.473 138.983 290.504Z"/><path fill="#E7C9A5" transform="scale(2 2)" d="M198.717 325.239C199.642 324.764 200.862 323.969 201.778 323.411C202.994 324.353 204.54 324.337 206.565 325.686C213.852 330.541 224.254 334.568 230.843 339.445L230.843 339.445C229.22 340.423 229.529 341.272 229.493 343.057L229.493 343.057C229.502 345.218 229.73 353.631 229.493 355.241C219.109 350.442 208.68 343.513 198.717 338.081C198.736 336.142 198.235 325.929 198.717 325.239L198.717 325.239Z"/><path fill="#DC9C54" transform="scale(2 2)" d="M198.717 325.239C199.642 324.764 200.862 323.969 201.778 323.411C202.994 324.353 204.54 324.337 206.565 325.686C213.852 330.541 224.254 334.568 230.843 339.445L230.843 339.445C229.22 340.423 229.529 341.272 229.493 343.057C219.312 337.89 209.332 330.674 198.717 325.239L198.717 325.239Z"/><path fill="#E4AF71" transform="scale(2 2)" d="M229.493 343.057C235.392 345.988 248.925 355.205 254.408 356.677L256.242 357.836L256.242 370.341C254.521 369.944 231.532 356.76 229.493 355.241C229.73 353.631 229.502 345.218 229.493 343.057Z"/><path fill="#693A1E" transform="scale(2 2)" d="M40.7455 267.024C43.0596 267.455 66.2923 281.905 70.6309 284.409L193.615 356.347C214.317 368.552 235.264 381.808 256.242 393.402L256.242 397.881C250.791 394.101 242.908 390.264 236.952 386.688L213.089 372.13L64.7895 285.223C57.1319 280.847 48.7004 276.493 41.4297 271.4C40.5551 270.787 40.7386 268.078 40.7455 267.024Z"/><path fill="#945934" transform="scale(2 2)" d="M256.242 377.546L256.242 375.576C256.243 377.335 256.412 382.004 256.242 383.506C256.184 382.454 256.23 381.258 256.242 380.191C251.803 378.217 247.306 376.317 255.682 378.844L256.062 378.602L256.242 377.546Z"/><path fill="#945934" transform="scale(2 2)" d="M227.452 272.942C230.678 274.025 254.328 287.097 256.627 289.104L256.627 289.104C264.15 294.422 275.259 299.098 281.931 304.558C283.669 305.239 284.666 305.929 286.242 306.924C287.418 306.058 288.429 305.264 289.714 304.558L306.203 313.764C308.693 315.16 312.039 316.865 314.354 318.35C314.458 320.34 315.376 324.434 312.213 323.411C307.101 325.295 290.627 334.696 286.242 338.081L284.771 338.081L284.771 338.081C285.027 339.06 285.281 340.125 285.562 341.088L286.242 341.088C278.397 345.751 264.31 354.375 256.242 357.836L254.408 356.677C248.925 355.205 235.392 345.988 229.493 343.057L229.493 343.057C229.529 341.272 229.22 340.423 230.843 339.445L230.843 339.445C224.254 334.568 213.852 330.541 206.565 325.686C204.54 324.337 202.994 324.353 201.778 323.411C200.862 323.969 199.642 324.764 198.717 325.239L198.717 325.239C198.235 325.929 198.736 336.142 198.717 338.081C189.047 332.351 178.813 327.109 169.302 321.096C169.516 319.514 169.287 310.418 169.302 308.164L169.302 308.164C169.405 306.401 169.607 306.304 171.074 305.351L172.416 304.558C180.463 299.721 189.472 293.975 197.785 289.638L197.785 289.638C207.222 285.991 217.816 277.504 227.452 272.942Z"/><path fill="#B1764D" transform="scale(2 2)" d="M256.627 324.27L257.373 324.27C261.468 326.364 282.444 337.997 284.771 338.081L284.771 338.081C285.027 339.06 285.281 340.125 285.562 341.088L286.242 341.088C278.397 345.751 264.31 354.375 256.242 357.836L254.408 356.677C248.925 355.205 235.392 345.988 229.493 343.057L229.493 343.057C229.529 341.272 229.22 340.423 230.843 339.445L230.843 339.445C237.866 334.831 249.168 328.099 256.627 324.27Z"/><path fill="#693A1E" transform="scale(2 2)" d="M256.627 353.902C261.295 351.493 282.303 338.123 284.771 338.081C285.027 339.06 285.281 340.125 285.562 341.088L286.242 341.088C278.397 345.751 264.31 354.375 256.242 357.836L254.408 356.677C255.872 355.77 255.793 355.513 256.627 353.902Z"/><path fill="#A15F31" transform="scale(2 2)" d="M230.843 339.445C232.637 340.766 255.311 353.607 256.627 353.902C255.793 355.513 255.872 355.77 254.408 356.677C248.925 355.205 235.392 345.988 229.493 343.057L229.493 343.057C229.529 341.272 229.22 340.423 230.843 339.445Z"/><path fill="#E4AF71" transform="scale(2 2)" d="M227.452 272.942C230.678 274.025 254.328 287.097 256.627 289.104L239.748 299.217C236.964 300.905 233.672 303.047 230.843 304.558C230.013 305.177 229.02 306.164 228.015 306.924C226.685 306.067 225.478 305.347 224.105 304.558C218.42 300.388 204.493 292.974 197.785 289.638C207.222 285.991 217.816 277.504 227.452 272.942Z"/><path fill="#DC9C54" transform="scale(2 2)" d="M220.497 279.973C224.335 281.052 240.208 291.21 244.579 293.596C239.295 296.181 234.512 299.226 229.493 302.281C221.492 297.812 212.955 293.731 204.746 289.104C207.685 287.03 217.113 281.756 220.497 279.973Z"/><path fill="#E4AF71" transform="scale(2 2)" d="M257.373 324.27C264.744 318.301 277.794 312.442 286.242 306.924C291.344 310.599 312.111 321.971 312.685 323.042L312.213 323.411C307.101 325.295 290.627 334.696 286.242 338.081L284.771 338.081C282.444 337.997 261.468 326.364 257.373 324.27Z"/><path fill="#DC9C54" transform="scale(2 2)" d="M281.931 313C289.101 315.544 296.292 322.084 304.299 324.27C299.555 327.356 291.172 332.51 286.242 334.962C283.724 334.781 268.701 325.823 263.429 323.411C267.539 320.722 277.652 314.688 281.931 313Z"/><path fill="#E4AF71" transform="scale(2 2)" d="M227.452 308.164C230.79 309.403 254.634 322.381 256.627 324.27C249.168 328.099 237.866 334.831 230.843 339.445C224.254 334.568 213.852 330.541 206.565 325.686C204.54 324.337 202.994 324.353 201.778 323.411C209.251 318.742 219.764 312.158 227.452 308.164Z"/><path fill="#DC9C54" transform="scale(2 2)" d="M219.542 315.696C221.822 315.545 240.068 325.408 243.281 327.369C239.449 330.218 234.907 332.244 230.843 334.962L230.507 334.97C224.973 331.61 212.901 324.699 207.435 322.296C212.334 320.04 215.217 317.826 219.542 315.696Z"/><path fill="#B1764D" transform="scale(2 2)" d="M197.785 289.638L197.785 289.638C204.493 292.974 218.42 300.388 224.105 304.558C219.462 308.493 204.769 315.951 198.717 319.825C192.726 316.668 176.822 308.305 172.416 304.558C180.463 299.721 189.472 293.975 197.785 289.638Z"/><path fill="#B1764D" transform="scale(2 2)" d="M256.627 289.104L256.627 289.104C264.15 294.422 275.259 299.098 281.931 304.558C274.376 307.794 264.339 314.563 256.627 318.35C248.598 313.954 238.326 309.574 230.843 304.558C233.672 303.047 236.964 300.905 239.748 299.217L256.627 289.104Z"/><path fill="#E4AF71" transform="scale(2 2)" d="M169.302 308.164C172.987 310.639 194.637 323.914 198.717 325.239L198.717 325.239C198.235 325.929 198.736 336.142 198.717 338.081C189.047 332.351 178.813 327.109 169.302 321.096C169.516 319.514 169.287 310.418 169.302 308.164Z"/><path fill="#E4AF71" transform="scale(2 2)" d="M256.627 219.095L256.627 219.095C261.598 223.079 274.78 229.744 281.077 233.413C278.993 235.483 261.298 246.021 257.373 247.84C255.522 250.409 257.825 252.529 256.242 253.086L256.627 253.524C248.744 258.503 238.125 263.575 230.843 268.851C229.422 269.701 228.737 270.263 227.452 271.299C226.373 270.575 225.005 269.421 224.105 268.851C221.15 267.674 200.784 256.268 198.717 254.354C202.412 252.895 226.032 238.235 227.452 236.904L227.452 236.904C228.118 236.535 231.454 234.003 232.283 233.413C240.573 229.399 248.885 224.049 256.627 219.095Z"/><path fill="#B1764D" transform="scale(2 2)" d="M256.627 219.095L256.627 219.095C261.598 223.079 274.78 229.744 281.077 233.413C278.993 235.483 261.298 246.021 257.373 247.84C249.227 242.746 240.532 238.385 232.283 233.413C240.573 229.399 248.885 224.049 256.627 219.095Z"/><path fill="#A15F31" transform="scale(2 2)" d="M227.452 236.904C228.118 236.535 231.454 234.003 232.283 233.413C240.532 238.385 249.227 242.746 257.373 247.84C255.522 250.409 257.825 252.529 256.242 253.086C250.606 250.897 232.399 240.174 227.452 236.904L227.452 236.904Z"/><path fill="#DC9C54" transform="scale(2 2)" d="M220.497 244.922C224.638 245.564 239.131 255.1 244.579 257.469C242.667 258.725 231.071 265.808 229.493 266.286C221.992 263.987 212.437 256.943 204.746 253.524C210.381 251.292 214.997 247.089 220.497 244.922Z"/><path fill="#E4AF71" transform="scale(2 2)" d="M286.242 271.299C294.565 277.508 306.882 283.052 315.281 289.104L298.373 299.115C296.312 300.345 291.421 303.119 289.714 304.558C288.429 305.264 287.418 306.058 286.242 306.924C284.666 305.929 283.669 305.239 281.931 304.558C275.259 299.098 264.15 294.422 256.627 289.104C261.225 287.082 282.766 274.248 286.242 271.299Z"/><path fill="#DC9C54" transform="scale(2 2)" d="M279.238 279.483C284.338 281.484 298.578 289.104 302.711 292.765C298.033 294.812 292.127 298.706 287.739 301.56C280.384 297.849 270.845 292.179 263.429 289.104C267.486 286.015 274.596 282.288 279.238 279.483Z"/><path fill="#E4AF71" transform="scale(2 2)" d="M169.302 237.723C178.541 243.264 189.015 248.339 197.785 254.354C197.456 255.226 175.35 267.267 172.416 269.634C170.883 270.494 170.21 271.008 168.81 272.087C167.577 271.107 166.175 270.398 164.795 269.634C158.034 264.416 146.476 259.661 140.093 254.354C149.401 248.923 159.923 242.558 169.302 237.723Z"/><path fill="#DC9C54" transform="scale(2 2)" d="M162.52 244.922C165.616 245.111 181.582 254.968 187.256 257.469C184.571 259.498 175.729 264.324 172.416 266.286C170.744 267.195 151.327 255.215 146.929 253.524C151.911 251.116 157.895 246.774 162.52 244.922Z"/><path fill="#E4AF71" transform="scale(2 2)" d="M286.242 237.723C295.956 242.702 305.251 249.246 315.281 253.524C308.805 258.557 296.951 264.27 289.714 268.851C288.377 269.521 287.414 270.373 286.242 271.299L281.931 268.135C273.866 263.58 265.418 258.282 257.373 253.524C266.449 249.115 276.781 241.532 285.518 238.011L285.969 237.828C286.06 237.793 286.151 237.758 286.242 237.723Z"/><path fill="#DC9C54" transform="scale(2 2)" d="M279.238 244.922C282.858 245.647 299.473 255.161 304.299 257.469C298.813 260.007 293.161 263.485 287.739 266.286C287.292 266.113 287.494 266.221 287.138 265.978C280.028 261.145 271.38 256.838 263.429 253.524C266.745 251.688 276.384 245.845 279.238 244.922Z"/><path fill="#E4AF71" transform="scale(2 2)" d="M142.181 289.104C149.73 283.729 160.698 278.087 168.81 272.942L197.785 289.638C189.472 293.975 180.463 299.721 172.416 304.558L171.074 305.351C166.51 300.611 149.595 292.509 142.181 289.104Z"/><path fill="#DC9C54" transform="scale(2 2)" d="M162.52 279.973C165.04 280.377 183.235 290.937 186.159 292.765C182.083 295.916 176.959 299.094 172.416 301.56C167.579 298.895 151.874 288.961 147.86 287.959C154.328 285.768 156.86 282.531 162.52 279.973Z"/><path fill="#B1764D" transform="scale(2 2)" d="M138.983 254.354L140.093 254.354C146.476 259.661 158.034 264.416 164.795 269.634C162.572 271.313 159.102 273.172 156.581 274.622L145.158 281.232C143.704 282.069 140.154 283.939 138.983 284.914C134.022 281.602 118.657 272.236 113.641 270.348C120.073 264.722 131.593 260.053 138.983 254.354Z"/><path fill="#B1764D" transform="scale(2 2)" d="M197.785 254.354L198.717 254.354C200.784 256.268 221.15 267.674 224.105 268.851C221.933 270.927 201.122 282.763 197.785 284.133L181.494 274.97C178.84 273.468 174.831 271.338 172.416 269.634C175.35 267.267 197.456 255.226 197.785 254.354Z"/><path fill="#B1764D" transform="scale(2 2)" d="M256.627 253.524C257.197 253.647 256.998 253.723 257.373 253.524C265.418 258.282 273.866 263.58 281.931 268.135C273.733 273.462 264.897 277.892 256.627 283.162C251.003 278.138 237.774 273.073 230.843 268.851C238.125 263.575 248.744 258.503 256.627 253.524Z"/><path fill="#B1764D" transform="scale(2 2)" d="M315.281 253.524L315.281 253.524C321.478 258.783 333.492 262.683 340.323 268.135C332.758 274.203 322.687 276.981 315.281 283.162C307.498 277.764 296.974 274.012 289.714 268.851C296.951 264.27 308.805 258.557 315.281 253.524Z"/><path fill="#E4AF71" transform="scale(2 2)" d="M112.747 274.401C121.526 279.298 130.866 284.572 138.983 290.504C138.409 292.998 139.489 299.377 138.66 303.188C133.35 300.768 118.211 291.498 112.747 287.959C113.201 286.565 112.599 276.913 112.747 274.401Z"/></svg>