<?xml version="1.0" encoding="UTF-8"?>
<svg xmlns="http://www.w3.org/2000/svg" width="1024" height="1024" viewBox="0 0 1024 1024">
<defs>
  <filter id="shadow" x="-20%" y="-20%" width="140%" height="140%">
    <feGaussianBlur stdDeviation="18"/>
  </filter>
</defs>
<circle cx="522" cy="534" r="430" fill="#000" opacity="0.35" filter="url(#shadow)"/>
<defs>
  <linearGradient id="edge" x1="0" y1="0" x2="0" y2="1">
    <stop offset="0" stop-color="#7e211a"/>
    <stop offset="1" stop-color="#3e0c08"/>
  </linearGradient>
  <radialGradient id="top" cx="0.5" cy="0.5" r="0.72">
    <stop offset="0" stop-color="#b04038"/>
    <stop offset="0.62" stop-color="#7e211a"/>
    <stop offset="1" stop-color="#4c100a"/>
  </radialGradient>
  <linearGradient id="sheen" x1="0" y1="0" x2="1" y2="1">
    <stop offset="0" stop-color="#fff" stop-opacity="0.38"/>
    <stop offset="0.42" stop-color="#fff" stop-opacity="0"/>
    <stop offset="0.58" stop-color="#fff" stop-opacity="0"/>
    <stop offset="1" stop-color="#fff" stop-opacity="0.24"/>
  </linearGradient>
  <clipPath id="topclip"><circle cx="512" cy="512" r="400"/></clipPath>
</defs>
<circle cx="512" cy="512" r="430" fill="url(#edge)"/>
<circle cx="512" cy="512" r="400" fill="url(#top)"/>
<g clip-path="url(#topclip)">
  <circle cx="512" cy="512" r="36" fill="none" stroke="#fff" stroke-width="4" stroke-opacity="0.070"/>
<circle cx="512" cy="512" r="43" fill="none" stroke="#000" stroke-width="4" stroke-opacity="0.127"/>
<circle cx="512" cy="512" r="50" fill="none" stroke="#fff" stroke-width="4" stroke-opacity="0.170"/>
<circle cx="512" cy="512" r="57" fill="none" stroke="#000" stroke-width="4" stroke-opacity="0.200"/>
<circle cx="512" cy="512" r="64" fill="none" stroke="#fff" stroke-width="4" stroke-opacity="0.145"/>
<circle cx="512" cy="512" r="71" fill="none" stroke="#000" stroke-width="4" stroke-opacity="0.127"/>
<circle cx="512" cy="512" r="78" fill="none" stroke="#fff" stroke-width="4" stroke-opacity="0.120"/>
<circle cx="512" cy="512" r="85" fill="none" stroke="#000" stroke-width="4" stroke-opacity="0.200"/>
<circle cx="512" cy="512" r="92" fill="none" stroke="#fff" stroke-width="4" stroke-opacity="0.095"/>
<circle cx="512" cy="512" r="99" fill="none" stroke="#000" stroke-width="4" stroke-opacity="0.127"/>
<circle cx="512" cy="512" r="106" fill="none" stroke="#fff" stroke-width="4" stroke-opacity="0.070"/>
<circle cx="512" cy="512" r="113" fill="none" stroke="#000" stroke-width="4" stroke-opacity="0.200"/>
<circle cx="512" cy="512" r="120" fill="none" stroke="#fff" stroke-width="4" stroke-opacity="0.170"/>
<circle cx="512" cy="512" r="127" fill="none" stroke="#000" stroke-width="4" stroke-opacity="0.127"/>
<circle cx="512" cy="512" r="134" fill="none" stroke="#fff" stroke-width="4" stroke-opacity="0.145"/>
<circle cx="512" cy="512" r="141" fill="none" stroke="#000" stroke-width="4" stroke-opacity="0.200"/>
<circle cx="512" cy="512" r="148" fill="none" stroke="#fff" stroke-width="4" stroke-opacity="0.120"/>
<circle cx="512" cy="512" r="155" fill="none" stroke="#000" stroke-width="4" stroke-opacity="0.127"/>
<circle cx="512" cy="512" r="162" fill="none" stroke="#fff" stroke-width="4" stroke-opacity="0.095"/>
<circle cx="512" cy="512" r="169" fill="none" stroke="#000" stroke-width="4" stroke-opacity="0.200"/>
<circle cx="512" cy="512" r="176" fill="none" stroke="#fff" stroke-width="4" stroke-opacity="0.070"/>
<circle cx="512" cy="512" r="183" fill="none" stroke="#000" stroke-width="4" stroke-opacity="0.127"/>
<circle cx="512" cy="512" r="190" fill="none" stroke="#fff" stroke-width="4" stroke-opacity="0.170"/>
<circle cx="512" cy="512" r="197" fill="none" stroke="#000" stroke-width="4" stroke-opacity="0.200"/>
<circle cx="512" cy="512" r="204" fill="none" stroke="#fff" stroke-width="4" stroke-opacity="0.145"/>
<circle cx="512" cy="512" r="211" fill="none" stroke="#000" stroke-width="4" stroke-opacity="0.127"/>
<circle cx="512" cy="512" r="218" fill="none" stroke="#fff" stroke-width="4" stroke-opacity="0.120"/>
<circle cx="512" cy="512" r="225" fill="none" stroke="#000" stroke-width="4" stroke-opacity="0.200"/>
<circle cx="512" cy="512" r="232" fill="none" stroke="#fff" stroke-width="4" stroke-opacity="0.095"/>
<circle cx="512" cy="512" r="239" fill="none" stroke="#000" stroke-width="4" stroke-opacity="0.127"/>
<circle cx="512" cy="512" r="246" fill="none" stroke="#fff" stroke-width="4" stroke-opacity="0.070"/>
<circle cx="512" cy="512" r="253" fill="none" stroke="#000" stroke-width="4" stroke-opacity="0.200"/>
<circle cx="512" cy="512" r="260" fill="none" stroke="#fff" stroke-width="4" stroke-opacity="0.170"/>
<circle cx="512" cy="512" r="267" fill="none" stroke="#000" stroke-width="4" stroke-opacity="0.127"/>
<circle cx="512" cy="512" r="274" fill="none" stroke="#fff" stroke-width="4" stroke-opacity="0.145"/>
<circle cx="512" cy="512" r="281" fill="none" stroke="#000" stroke-width="4" stroke-opacity="0.200"/>
<circle cx="512" cy="512" r="288" fill="none" stroke="#fff" stroke-width="4" stroke-opacity="0.120"/>
<circle cx="512" cy="512" r="295" fill="none" stroke="#000" stroke-width="4" stroke-opacity="0.127"/>
<circle cx="512" cy="512" r="302" fill="none" stroke="#fff" stroke-width="4" stroke-opacity="0.095"/>
<circle cx="512" cy="512" r="309" fill="none" stroke="#000" stroke-width="4" stroke-opacity="0.200"/>
<circle cx="512" cy="512" r="316" fill="none" stroke="#fff" stroke-width="4" stroke-opacity="0.070"/>
<circle cx="512" cy="512" r="323" fill="none" stroke="#000" stroke-width="4" stroke-opacity="0.127"/>
<circle cx="512" cy="512" r="330" fill="none" stroke="#fff" stroke-width="4" stroke-opacity="0.170"/>
<circle cx="512" cy="512" r="337" fill="none" stroke="#000" stroke-width="4" stroke-opacity="0.200"/>
<circle cx="512" cy="512" r="344" fill="none" stroke="#fff" stroke-width="4" stroke-opacity="0.145"/>
<circle cx="512" cy="512" r="351" fill="none" stroke="#000" stroke-width="4" stroke-opacity="0.127"/>
<circle cx="512" cy="512" r="358" fill="none" stroke="#fff" stroke-width="4" stroke-opacity="0.120"/>
<circle cx="512" cy="512" r="365" fill="none" stroke="#000" stroke-width="4" stroke-opacity="0.200"/>
<circle cx="512" cy="512" r="372" fill="none" stroke="#fff" stroke-width="4" stroke-opacity="0.095"/>
<circle cx="512" cy="512" r="379" fill="none" stroke="#000" stroke-width="4" stroke-opacity="0.127"/>
<circle cx="512" cy="512" r="386" fill="none" stroke="#fff" stroke-width="4" stroke-opacity="0.070"/>
  <circle cx="512" cy="512" r="400" fill="url(#sheen)"/>
</g>
<circle cx="512" cy="512" r="396" fill="none" stroke="#fff" stroke-width="5" stroke-opacity="0.22"/>
<circle cx="512" cy="512" r="424" fill="none" stroke="#000" stroke-width="8" stroke-opacity="0.3"/>
<circle cx="512" cy="512" r="336" fill="none" stroke="#000" stroke-width="7" stroke-opacity="0.45"/>
<circle cx="512" cy="512" r="331" fill="none" stroke="#fff" stroke-width="4" stroke-opacity="0.35"/>
<circle cx="512" cy="512" r="296" fill="none" stroke="#000" stroke-width="7" stroke-opacity="0.45"/>
<circle cx="512" cy="512" r="291" fill="none" stroke="#fff" stroke-width="4" stroke-opacity="0.35"/>
</svg>
