<svg xmlns="http://www.w3.org/2000/svg" width="128" height="128" fill="none" viewBox="0 0 128 128"><rect width="104" height="100" x="12" y="20" fill="url(#a)" rx="10"/><rect width="104" height="96" x="12" y="20" fill="#7c552a" rx="10"/><path fill="url(#b)" d="M16 20a8 8 0 0 1 8-8h40v100H22a6 6 0 0 1-6-6z"/><path fill="url(#c)" d="M64 12h40a8 8 0 0 1 8 8v84a8 8 0 0 1-8 8H64z"/><path fill="#ffebca" d="M16 20a8 8 0 0 1 8-8h40v48H16zM64 60h48v40a8 8 0 0 1-8 8H64z"/><path fill="#749854" d="M16 60h48v48H22a6 6 0 0 1-6-6zM64 12h40a8 8 0 0 1 8 8v40H64z"/><rect width="36" height="40" x="70" y="62" fill="url(#d)" rx="18"/><circle cx="88" cy="80" r="18" fill="#e7c5a3"/><g filter="url(#e)"><circle cx="88" cy="80" r="14" stroke="#000" stroke-opacity=".2" stroke-width="2"/></g><rect width="36" height="40" x="22" y="14" fill="url(#f)" rx="18"/><circle cx="40" cy="32" r="18" fill="#865b38"/><g filter="url(#g)"><circle cx="40" cy="32" r="14" stroke="#000" stroke-opacity=".2" stroke-width="2"/></g><defs><linearGradient id="a" x1="12" x2="116.002" y1="35.833" y2="36.164" gradientUnits="userSpaceOnUse"><stop offset=".003" stop-color="#825e30"/><stop offset=".02" stop-color="#c68547"/><stop offset=".1" stop-color="#523a18"/><stop offset=".9" stop-color="#523a18"/><stop offset=".98" stop-color="#c68547"/><stop offset="1" stop-color="#825e30"/></linearGradient><linearGradient id="b" x1="64" x2="16" y1="112" y2="112" gradientUnits="userSpaceOnUse"><stop offset=".85" stop-color="#475937"/><stop offset=".96" stop-color="#a5bc91"/><stop offset="1" stop-color="#667c53"/></linearGradient><linearGradient id="c" x1="112" x2="64" y1="112" y2="112" gradientUnits="userSpaceOnUse"><stop stop-color="#f7dfb6"/><stop offset=".04" stop-color="#ecdac7"/><stop offset=".15" stop-color="#d2bf9b"/></linearGradient><linearGradient id="d" x1="70" x2="106" y1="102" y2="102" gradientUnits="userSpaceOnUse"><stop stop-color="#a88d6f"/><stop offset=".167" stop-color="#bba081"/><stop offset=".333" stop-color="#d1b595"/><stop offset=".5" stop-color="#f3d7b7"/><stop offset=".667" stop-color="#d1b595"/><stop offset=".833" stop-color="#bba081"/><stop offset="1" stop-color="#a88d6f"/></linearGradient><linearGradient id="f" x1="22" x2="58" y1="54" y2="54" gradientUnits="userSpaceOnUse"><stop stop-color="#4e3119"/><stop offset=".167" stop-color="#66452b"/><stop offset=".333" stop-color="#744f30"/><stop offset=".5" stop-color="#a57349"/><stop offset=".667" stop-color="#744f30"/><stop offset=".833" stop-color="#66452b"/><stop offset="1" stop-color="#4e3119"/></linearGradient><filter id="e" width="30" height="30" x="73" y="65" color-interpolation-filters="sRGB" filterUnits="userSpaceOnUse"><feFlood flood-opacity="0" result="BackgroundImageFix"/><feBlend in="SourceGraphic" in2="BackgroundImageFix" result="shape"/><feColorMatrix in="SourceAlpha" result="hardAlpha" values="0 0 0 0 0 0 0 0 0 0 0 0 0 0 0 0 0 0 127 0"/><feOffset dy="2"/><feComposite in2="hardAlpha" k2="-1" k3="1" operator="arithmetic"/><feColorMatrix values="0 0 0 0 0 0 0 0 0 0 0 0 0 0 0 0 0 0 0.25 0"/><feBlend in2="shape" result="effect1_innerShadow_298_10"/></filter><filter id="g" width="30" height="30" x="25" y="17" color-interpolation-filters="sRGB" filterUnits="userSpaceOnUse"><feFlood flood-opacity="0" result="BackgroundImageFix"/><feBlend in="SourceGraphic" in2="BackgroundImageFix" result="shape"/><feColorMatrix in="SourceAlpha" result="hardAlpha" values="0 0 0 0 0 0 0 0 0 0 0 0 0 0 0 0 0 0 127 0"/><feOffset dy="2"/><feComposite in2="hardAlpha" k2="-1" k3="1" operator="arithmetic"/><feColorMatrix values="0 0 0 0 0 0 0 0 0 0 0 0 0 0 0 0 0 0 0.25 0"/><feBlend in2="shape" result="effect1_innerShadow_298_10"/></filter></defs></svg>